<svg width="60" height="65" viewBox="0 0 60 65" fill="none" xmlns="http://www.w3.org/2000/svg">
<path d="M39.2668 10.1698L10 10C10.3982 10.6792 11.3937 11.3342 11.7918 11.3585C14.0217 11.4943 14.7782 12.717 15.1764 13.3962V43.6226L19.1583 47.0189V40.0566V20.0189C19.1583 14.3132 20.1538 13.3962 20.5519 13.3962H39.4659C47.592 17.5305 44.0422 23.6964 40.4951 27.3396C39.742 28.1132 39.2668 29.1279 39.2668 30.2075C59.9725 22.3962 45.4387 10.1698 39.2668 10.1698Z" fill="white"/>
<path d="M28.3166 55L24.3347 51.6038V36.4906V21.3774L28.3166 24.9434V47.0756C28.3166 48.5481 28.9619 49.9466 30.0822 50.9021C30.6132 51.355 31.2882 51.6038 31.986 51.6038H43.0496V46.5094H40.2622C40.2622 46.5094 41.0586 44.8113 42.4523 44.3019H44.2441V53.6415C44.2441 54.8642 43.6468 55 43.2487 55H28.3166Z" fill="white"/>
<path d="M39.2668 10.1698L10 10C10.3982 10.6792 11.3937 11.3342 11.7918 11.3585C14.0217 11.4943 14.7782 12.717 15.1764 13.3962V43.6226L19.1583 47.0189V40.0566V20.0189C19.1583 14.3132 20.1538 13.3962 20.5519 13.3962H39.4659C47.592 17.5305 44.0422 23.6964 40.4951 27.3396C39.742 28.1132 39.2668 29.1279 39.2668 30.2075C59.9725 22.3962 45.4387 10.1698 39.2668 10.1698Z" stroke="white" stroke-width="2"/>
<path d="M28.3166 55L24.3347 51.6038V36.4906V21.3774L28.3166 24.9434V47.0756C28.3166 48.5481 28.9619 49.9466 30.0822 50.9021C30.6132 51.355 31.2882 51.6038 31.986 51.6038H43.0496V46.5094H40.2622C40.2622 46.5094 41.0586 44.8113 42.4523 44.3019H44.2441V53.6415C44.2441 54.8642 43.6468 55 43.2487 55H28.3166Z" stroke="white" stroke-width="2"/>
</svg>
